<svg width="57" height="15" viewBox="0 0 57 15" fill="none" xmlns="http://www.w3.org/2000/svg">
<circle cx="5.5" cy="7.5" r="5.5" fill="#00B0D7"/>
<path d="M16.83 3.87C17.71 3.87 18.44 4.09667 19.02 4.55C19.6 5.00333 19.9833 5.62 20.17 6.4H18.69C18.5367 6.02 18.2967 5.72 17.97 5.5C17.65 5.28 17.2633 5.17 16.81 5.17C16.4367 5.17 16.1 5.26333 15.8 5.45C15.5 5.63667 15.2667 5.90333 15.1 6.25C14.9333 6.59667 14.85 7.00333 14.85 7.47C14.85 7.93 14.9333 8.33333 15.1 8.68C15.2667 9.02667 15.5 9.29333 15.8 9.48C16.1 9.66667 16.4367 9.76 16.81 9.76C17.2633 9.76 17.65 9.65 17.97 9.43C18.2967 9.21 18.5367 8.91 18.69 8.53H20.17C19.9833 9.31 19.6 9.92667 19.02 10.38C18.44 10.8333 17.71 11.06 16.83 11.06C16.1567 11.06 15.56 10.91 15.04 10.61C14.5267 10.3033 14.1267 9.87667 13.84 9.33C13.56 8.78333 13.42 8.16333 13.42 7.47C13.42 6.77 13.56 6.14667 13.84 5.6C14.1267 5.05333 14.5267 4.63 15.04 4.33C15.5533 4.02333 16.15 3.87 16.83 3.87ZM23.0379 5.39C23.5779 5.39 24.0612 5.50333 24.4879 5.73C24.9212 5.95667 25.2612 6.28667 25.5079 6.72C25.7546 7.14667 25.8779 7.65 25.8779 8.23C25.8779 8.81 25.7546 9.31333 25.5079 9.74C25.2612 10.1667 24.9212 10.4967 24.4879 10.73C24.0612 10.9567 23.5779 11.07 23.0379 11.07C22.4979 11.07 22.0112 10.9567 21.5779 10.73C21.1512 10.4967 20.8146 10.1667 20.5679 9.74C20.3212 9.31333 20.1979 8.81 20.1979 8.23C20.1979 7.65 20.3212 7.14667 20.5679 6.72C20.8146 6.28667 21.1512 5.95667 21.5779 5.73C22.0112 5.50333 22.4979 5.39 23.0379 5.39ZM23.0379 6.61C22.6446 6.61 22.3112 6.75 22.0379 7.03C21.7646 7.30333 21.6279 7.70333 21.6279 8.23C21.6279 8.75667 21.7646 9.16 22.0379 9.44C22.3112 9.71333 22.6446 9.85 23.0379 9.85C23.4312 9.85 23.7646 9.71333 24.0379 9.44C24.3112 9.16 24.4479 8.75667 24.4479 8.23C24.4479 7.70333 24.3112 7.30333 24.0379 7.03C23.7646 6.75 23.4312 6.61 23.0379 6.61ZM33.1744 5.38C33.8477 5.38 34.3777 5.59 34.7644 6.01C35.1577 6.42333 35.3544 7.01333 35.3544 7.78V11H33.9544V7.94C33.9544 7.51333 33.8444 7.18667 33.6244 6.96C33.411 6.72667 33.1144 6.61 32.7344 6.61C32.341 6.61 32.0277 6.73333 31.7944 6.98C31.561 7.22667 31.4444 7.58667 31.4444 8.06V11H30.0444V7.94C30.0444 7.51333 29.9344 7.18667 29.7144 6.96C29.501 6.72667 29.2044 6.61 28.8244 6.61C28.431 6.61 28.1177 6.73333 27.8844 6.98C27.651 7.22667 27.5344 7.58667 27.5344 8.06V11H26.1244V5.46H27.5344V6.51C27.681 6.15 27.911 5.87333 28.2244 5.68C28.5444 5.48 28.9144 5.38 29.3344 5.38C29.781 5.38 30.1677 5.48667 30.4944 5.7C30.8277 5.91333 31.0777 6.22 31.2444 6.62C31.4177 6.24 31.6744 5.94 32.0144 5.72C32.361 5.49333 32.7477 5.38 33.1744 5.38ZM39.1531 5.39C39.6198 5.39 40.0398 5.50333 40.4131 5.73C40.7865 5.95667 41.0765 6.28667 41.2831 6.72C41.4965 7.14667 41.6031 7.65 41.6031 8.23C41.6031 8.81 41.4965 9.31667 41.2831 9.75C41.0765 10.1767 40.7865 10.5033 40.4131 10.73C40.0398 10.9567 39.6198 11.07 39.1531 11.07C38.6865 11.07 38.2865 10.96 37.9531 10.74C37.6265 10.5133 37.3931 10.2133 37.2531 9.84V13.64H35.8431V5.46H37.2531V6.61C37.3931 6.23667 37.6265 5.94 37.9531 5.72C38.2865 5.5 38.6865 5.39 39.1531 5.39ZM38.7131 6.62C38.2865 6.62 37.9331 6.76667 37.6531 7.06C37.3798 7.34667 37.2431 7.73667 37.2431 8.23C37.2431 8.71667 37.3798 9.10667 37.6531 9.4C37.9331 9.68667 38.2865 9.83 38.7131 9.83C39.1531 9.83 39.5065 9.69 39.7731 9.41C40.0398 9.12333 40.1731 8.73 40.1731 8.23C40.1731 7.73 40.0398 7.33667 39.7731 7.05C39.5065 6.76333 39.1531 6.62 38.7131 6.62ZM47.1509 5.46V11H45.7409V9.88C45.5943 10.2533 45.3509 10.5467 45.0109 10.76C44.6776 10.9667 44.2909 11.07 43.8509 11.07C43.2109 11.07 42.7009 10.86 42.3209 10.44C41.9409 10.02 41.7509 9.43333 41.7509 8.68V5.46H43.1509V8.52C43.1509 8.96 43.2643 9.30333 43.4909 9.55C43.7176 9.79 44.0243 9.91 44.4109 9.91C44.8176 9.91 45.1409 9.78 45.3809 9.52C45.6209 9.26 45.7409 8.88667 45.7409 8.4V5.46H47.1509ZM50.643 9.79V11H49.903C49.283 11 48.8063 10.85 48.473 10.55C48.1463 10.25 47.983 9.75 47.983 9.05V6.65H47.213V5.46H47.983V4.09H49.393V5.46H50.633V6.65H49.393V9.07C49.393 9.33667 49.4463 9.52333 49.553 9.63C49.6596 9.73667 49.8396 9.79 50.093 9.79H50.643ZM56.1176 8.02C56.1176 8.16 56.1009 8.32 56.0676 8.5H52.0076C52.0276 8.99333 52.1609 9.35667 52.4076 9.59C52.6542 9.82333 52.9609 9.94 53.3276 9.94C53.6542 9.94 53.9242 9.86 54.1376 9.7C54.3576 9.54 54.4976 9.32333 54.5576 9.05H56.0476C55.9742 9.43667 55.8176 9.78333 55.5776 10.09C55.3376 10.3967 55.0276 10.6367 54.6476 10.81C54.2742 10.9833 53.8576 11.07 53.3976 11.07C52.8576 11.07 52.3776 10.9567 51.9576 10.73C51.5376 10.4967 51.2109 10.1667 50.9776 9.74C50.7442 9.31333 50.6276 8.81 50.6276 8.23C50.6276 7.65 50.7442 7.14667 50.9776 6.72C51.2109 6.28667 51.5376 5.95667 51.9576 5.73C52.3776 5.50333 52.8576 5.39 53.3976 5.39C53.9442 5.39 54.4209 5.50333 54.8276 5.73C55.2409 5.95667 55.5576 6.27 55.7776 6.67C56.0042 7.06333 56.1176 7.51333 56.1176 8.02ZM54.6976 7.88C54.7176 7.42667 54.5976 7.08333 54.3376 6.85C54.0842 6.61667 53.7709 6.5 53.3976 6.5C53.0176 6.5 52.6976 6.61667 52.4376 6.85C52.1776 7.08333 52.0342 7.42667 52.0076 7.88H54.6976Z" fill="black"/>
</svg>
